<?xml version="1.0" encoding="utf-8"?>
<!-- Generator: Adobe Illustrator 16.0.0, SVG Export Plug-In . SVG Version: 6.00 Build 0)  -->
<!DOCTYPE svg PUBLIC "-//W3C//DTD SVG 1.1//EN" "http://www.w3.org/Graphics/SVG/1.1/DTD/svg11.dtd">
<svg version="1.1" id="Layer_1" xmlns="http://www.w3.org/2000/svg" xmlns:xlink="http://www.w3.org/1999/xlink" x="0px" y="0px"
	 width="52.282px" height="47.573px" viewBox="0 0 52.282 47.573" enable-background="new 0 0 52.282 47.573" xml:space="preserve">
<g>
	
		<linearGradient id="SVGID_1_" gradientUnits="userSpaceOnUse" x1="17.9453" y1="115.6675" x2="23.9781" y2="85.5036" gradientTransform="matrix(0.9916 -0.1296 0.1296 0.9916 -7.6284 -65.3271)">
		<stop  offset="0" style="stop-color:#F39100"/>
		<stop  offset="1" style="stop-color:#E63027"/>
	</linearGradient>
	<path fill="url(#SVGID_1_)" d="M13.987,47.573c0,0-0.189-17.982-5.683-24.395c-1.962-2.29-4.449-3.292-6.633-1.907
		c-2.14,1.355-1.938,4.278-0.987,6.479c1.476,3.424,5.414,6.147,8.09,9.479C10.94,39.928,13.987,47.573,13.987,47.573z
		 M45.075,46.624c-5.205,0.099-8.667-2.75-16.25-2.167c-4.817,0.371-9.89,2.803-9.89,2.803s12.254-13.07,24.043-12.859
		c4.209,0.074,8.811,1.642,9.263,5.223C52.684,43.133,49.491,46.541,45.075,46.624z M26.663,9.708
		c0.158-4.945-2.288-10.193-7.161-9.672c-3.21,0.343-5.091,4.442-4.851,7.539c0.421,5.453,1.643,5.06,2.207,17.576
		c0.411,9.111,0.768,11.166-0.15,21.069C16.708,46.219,25.994,30.534,26.663,9.708z"/>
</g>
</svg>
