<?xml version="1.0" encoding="utf-8"?>
<!-- Generator: Adobe Illustrator 16.0.0, SVG Export Plug-In . SVG Version: 6.00 Build 0)  -->
<!DOCTYPE svg PUBLIC "-//W3C//DTD SVG 1.1//EN" "http://www.w3.org/Graphics/SVG/1.1/DTD/svg11.dtd">
<svg version="1.1" id="Layer_1" xmlns="http://www.w3.org/2000/svg" xmlns:xlink="http://www.w3.org/1999/xlink" x="0px" y="0px"
	 width="284.6px" height="64.809px" viewBox="0 0 284.6 64.809" enable-background="new 0 0 284.6 64.809" xml:space="preserve">
<g>
	<g>
		<linearGradient id="SVGID_1_" gradientUnits="userSpaceOnUse" x1="254" y1="49.2666" x2="260.9999" y2="22.9335">
			<stop  offset="0" style="stop-color:#F39100"/>
			<stop  offset="1" style="stop-color:#E63027"/>
		</linearGradient>
		<path fill="url(#SVGID_1_)" d="M255.068,23.704l-2.973,16.835c-0.107,0.697-0.161,1.179-0.161,1.446
			c0,1.232,0.348,2.177,1.045,2.833c0.696,0.657,1.728,0.985,3.094,0.985c1.607,0,2.919-0.456,3.938-1.367
			c1.018-0.91,1.674-2.21,1.969-3.897l2.973-16.835h6.871l-2.974,16.835c-0.455,2.545-1.359,4.695-2.712,6.449
			c-1.353,1.755-3,3.061-4.941,3.917c-1.942,0.857-4.052,1.286-6.328,1.286c-2.947,0-5.324-0.763-7.132-2.29
			c-1.809-1.527-2.712-3.736-2.712-6.629c0-0.857,0.08-1.768,0.24-2.732l2.934-16.835H255.068z"/>
		<linearGradient id="SVGID_2_" gradientUnits="userSpaceOnUse" x1="274.1992" y1="54.6367" x2="281.1992" y2="28.3032">
			<stop  offset="0" style="stop-color:#F39100"/>
			<stop  offset="1" style="stop-color:#E63027"/>
		</linearGradient>
		<path fill="url(#SVGID_2_)" d="M284.6,23.704l-4.982,28.206h-6.87l4.981-28.206H284.6z"/>
	</g>
	<g>
		<path fill="#151347" d="M81.955,45.01h11.2l-1.15,6.5h-19.75l6.2-35.101h8.55L81.955,45.01z"/>
		<path fill="#151347" d="M101.205,29.959c1.467-2.167,3.232-3.833,5.3-5c2.066-1.167,4.25-1.75,6.55-1.75
			c1.967,0,3.617,0.4,4.95,1.2c1.333,0.8,2.3,1.85,2.899,3.15l0.701-3.95h8.549l-4.949,27.9h-8.551l0.75-3.951
			c-1.066,1.301-2.416,2.351-4.049,3.15c-1.635,0.801-3.434,1.2-5.4,1.2s-3.709-0.45-5.225-1.351
			c-1.518-0.899-2.693-2.174-3.525-3.824c-0.834-1.65-1.25-3.591-1.25-5.825c0-1.066,0.1-2.2,0.3-3.4
			C98.755,34.643,99.738,32.126,101.205,29.959z M119.305,35.909c0-1.633-0.475-2.917-1.425-3.85c-0.95-0.933-2.159-1.4-3.625-1.4
			c-1.7,0-3.25,0.609-4.649,1.825c-1.4,1.217-2.284,2.892-2.65,5.025c-0.1,0.6-0.15,1.15-0.15,1.65c0,1.634,0.475,2.925,1.426,3.875
			c0.949,0.95,2.141,1.425,3.574,1.425c1.7,0,3.25-0.617,4.65-1.85c1.4-1.233,2.3-2.917,2.699-5.05
			C119.255,36.959,119.305,36.409,119.305,35.909z"/>
		<path fill="#151347" d="M149.529,24.409c1.615-0.8,3.407-1.2,5.375-1.2c3,0,5.424,0.983,7.274,2.95
			c1.851,1.967,2.774,4.634,2.774,8c0,1.034-0.1,2.15-0.299,3.35c-0.5,2.867-1.484,5.392-2.951,7.575
			c-1.467,2.184-3.232,3.867-5.299,5.051c-2.068,1.184-4.25,1.774-6.551,1.774c-1.934,0-3.566-0.399-4.9-1.2
			c-1.333-0.8-2.316-1.832-2.949-3.1l-3.051,17.199h-8.549l7.25-41.199h8.549l-0.699,3.95
			C146.57,26.259,147.912,25.209,149.529,24.409z M156.154,35.959c0-1.667-0.476-2.967-1.426-3.9c-0.949-0.933-2.158-1.4-3.625-1.4
			c-1.699,0-3.25,0.617-4.65,1.85c-1.399,1.233-2.299,2.917-2.699,5.05c-0.1,0.6-0.15,1.15-0.15,1.65c0,1.633,0.467,2.917,1.4,3.85
			c0.933,0.934,2.133,1.4,3.6,1.4c1.7,0,3.258-0.625,4.676-1.875c1.416-1.25,2.324-2.941,2.725-5.075
			C156.104,36.943,156.154,36.426,156.154,35.959z"/>
		<path fill="#151347" d="M181.503,23.609l-4.899,27.9h-8.551l4.9-27.9H181.503z"/>
		<path fill="#151347" d="M199.253,14.509l-6.55,37h-8.551l6.551-37H199.253z"/>
		<path fill="#151347" d="M215.354,14.509l-6.551,37h-8.55l6.55-37H215.354z"/>
		<path fill="#151347" d="M229.803,23.609l-4.9,27.9h-8.55l4.9-27.9H229.803z M222.928,19.634c-0.783-0.716-1.175-1.625-1.175-2.725
			c0-1.5,0.583-2.783,1.75-3.85c1.166-1.066,2.583-1.6,4.25-1.6c1.333,0,2.383,0.358,3.149,1.075c0.767,0.717,1.15,1.642,1.15,2.775
			c0,1.467-0.584,2.734-1.75,3.8c-1.167,1.067-2.567,1.6-4.2,1.6C224.77,20.709,223.711,20.352,222.928,19.634z"/>
	</g>
	
		<linearGradient id="SVGID_3_" gradientUnits="userSpaceOnUse" x1="7.0107" y1="113.0869" x2="13.0436" y2="82.9227" gradientTransform="matrix(0.9916 -0.1296 0.1296 0.9916 3.5483 -56.4881)">
		<stop  offset="0" style="stop-color:#F39100"/>
		<stop  offset="1" style="stop-color:#E63027"/>
	</linearGradient>
	<path fill="url(#SVGID_3_)" d="M13.987,55.271c0,0-0.189-17.983-5.683-24.395c-1.962-2.29-4.449-3.292-6.633-1.907
		c-2.14,1.355-1.938,4.278-0.987,6.479c1.476,3.424,5.414,6.147,8.09,9.479C10.94,47.625,13.987,55.271,13.987,55.271z
		 M45.075,54.322c-5.205,0.098-8.667-2.75-16.25-2.167c-4.817,0.37-9.89,2.803-9.89,2.803s12.254-13.07,24.043-12.859
		c4.209,0.074,8.811,1.642,9.263,5.224C52.684,50.831,49.491,54.238,45.075,54.322z M26.663,17.405
		c0.158-4.945-2.288-10.193-7.161-9.672c-3.21,0.343-5.091,4.442-4.851,7.539c0.421,5.453,1.643,5.06,2.207,17.576
		c0.411,9.111,0.768,11.166-0.15,21.069C16.708,53.917,25.994,38.232,26.663,17.405z"/>
	
		<linearGradient id="SVGID_4_" gradientUnits="userSpaceOnUse" x1="163.6855" y1="103.4678" x2="163.6855" y2="91.2708" gradientTransform="matrix(0.9929 -0.1186 0.1186 0.9929 10.5671 -67.9972)">
		<stop  offset="0" style="stop-color:#F39100"/>
		<stop  offset="1" style="stop-color:#E63027"/>
	</linearGradient>
	<path fill="url(#SVGID_4_)" d="M180.776,13.979c3.69-2.153,8.345-3.286,10.948-5.955c1.674-1.715,2.908-4.372,1.396-6.404
		c-1.543-2.074-4.223-2.029-6.875-0.593c-7.425,4.02-10.465,16.486-10.465,16.486S177.788,15.723,180.776,13.979z"/>
</g>
</svg>
